[2026-03-15 12:32:37] [INFO] Jarvis Desktop launcher started.
[2026-03-15 12:32:37] [INFO] Runtime log path: C:\Jarvis\logs\runtime_2026-03-15_12-32-37.txt
[2026-03-15 12:32:37] [INFO] Launcher executable: C:\Users\anden\AppData\Local\Python\pythoncore-3.14-64\pythonw.exe
[2026-03-15 12:32:37] [INFO] Root directory: C:\Jarvis
[2026-03-15 12:32:37] [INFO] Target script: C:\Jarvis\jarvis_desktop_test.py
[2026-03-15 12:32:37] [INFO] Diagnostics script: C:\Jarvis\desktop\jarvis_diagnostics.pyw
[2026-03-15 12:32:37] [INFO] Recovery attempts allowed: 3
[2026-03-15 12:32:37] [INFO] Voice hook ready: C:\Jarvis\jarvis_voice.py
[2026-03-15 12:32:37] [INFO] Starting desktop renderer process. attempt=1
[2026-03-15 12:32:37] [INFO] Child executable: C:\Users\anden\AppData\Local\Python\pythoncore-3.14-64\pythonw.exe
[2026-03-15 12:32:37] [STDOUT] Jarvis Desktop Concept 1 - Version 1.02
[2026-03-15 12:32:37] [STDOUT] Hotkey: Ctrl + Alt + End
[2026-03-15 12:32:37] [STDERR] Traceback (most recent call last):
[2026-03-15 12:32:37] [STDERR]   File "C:\Jarvis\jarvis_desktop_test.py", line 44, in <module>
[2026-03-15 12:32:37] [STDERR]     raise SystemExit(main())
[2026-03-15 12:32:37] [STDERR]                      ~~~~^^
[2026-03-15 12:32:37] [STDERR]   File "C:\Jarvis\jarvis_desktop_test.py", line 36, in main
[2026-03-15 12:32:37] [STDERR]     raise RuntimeError("Jarvis test crash triggered intentionally")
[2026-03-15 12:32:37] [STDERR] RuntimeError: Jarvis test crash triggered intentionally
[2026-03-15 12:32:37] [INFO] Desktop renderer exited. exit_code=1
[2026-03-15 12:32:37] [WARN] Recovery attempt 1/3
[2026-03-15 12:32:39] [INFO] Starting desktop renderer process. attempt=2
[2026-03-15 12:32:39] [INFO] Child executable: C:\Users\anden\AppData\Local\Python\pythoncore-3.14-64\pythonw.exe
[2026-03-15 12:32:39] [STDOUT] Jarvis Desktop Concept 1 - Version 1.02
[2026-03-15 12:32:39] [STDOUT] Hotkey: Ctrl + Alt + End
[2026-03-15 12:32:39] [STDERR] Traceback (most recent call last):
[2026-03-15 12:32:39] [STDERR]   File "C:\Jarvis\jarvis_desktop_test.py", line 44, in <module>
[2026-03-15 12:32:39] [STDERR]     raise SystemExit(main())
[2026-03-15 12:32:39] [STDERR]                      ~~~~^^
[2026-03-15 12:32:39] [STDERR]   File "C:\Jarvis\jarvis_desktop_test.py", line 36, in main
[2026-03-15 12:32:39] [STDERR]     raise RuntimeError("Jarvis test crash triggered intentionally")
[2026-03-15 12:32:39] [STDERR] RuntimeError: Jarvis test crash triggered intentionally
[2026-03-15 12:32:39] [INFO] Desktop renderer exited. exit_code=1
[2026-03-15 12:32:39] [WARN] Recovery attempt 2/3
[2026-03-15 12:32:40] [INFO] Starting desktop renderer process. attempt=3
[2026-03-15 12:32:40] [INFO] Child executable: C:\Users\anden\AppData\Local\Python\pythoncore-3.14-64\pythonw.exe
[2026-03-15 12:32:41] [STDOUT] Jarvis Desktop Concept 1 - Version 1.02
[2026-03-15 12:32:41] [STDOUT] Hotkey: Ctrl + Alt + End
[2026-03-15 12:32:41] [STDERR] Traceback (most recent call last):
[2026-03-15 12:32:41] [STDERR]   File "C:\Jarvis\jarvis_desktop_test.py", line 44, in <module>
[2026-03-15 12:32:41] [STDERR]     raise SystemExit(main())
[2026-03-15 12:32:41] [STDERR]                      ~~~~^^
[2026-03-15 12:32:41] [STDERR]   File "C:\Jarvis\jarvis_desktop_test.py", line 36, in main
[2026-03-15 12:32:41] [STDERR]     raise RuntimeError("Jarvis test crash triggered intentionally")
[2026-03-15 12:32:41] [STDERR] RuntimeError: Jarvis test crash triggered intentionally
[2026-03-15 12:32:41] [INFO] Desktop renderer exited. exit_code=1
[2026-03-15 12:32:41] [ERROR] Crash log written: C:\Jarvis\logs\crash\crash_2026-03-15_12-32-41.txt
[2026-03-15 12:32:41] [INFO] Trying voice line 'Uhm..... Sir, I seem to be malfunctioning.' using voice --text --mode
[2026-03-15 12:32:51] [VOICE_STDERR] Input #0, wav, from 'C:/Users/anden/AppData/Local/Temp/tmpif_d9_2g.wav':
[2026-03-15 12:32:51] [VOICE_STDERR]   Metadata:
[2026-03-15 12:32:51] [VOICE_STDERR]     encoder         : Lavf62.13.100
[2026-03-15 12:32:51] [VOICE_STDERR]   Duration: 00:00:09.00, bitrate: 384 kb/s
[2026-03-15 12:32:51] [VOICE_STDERR]   Stream #0:0: Audio: pcm_s16le ([1][0][0][0] / 0x0001), 24000 Hz, 1 channels, s16, 384 kb/s
[2026-03-15 12:32:51] [INFO] Voice line completed: Uhm..... Sir, I seem to be malfunctioning.
[2026-03-15 12:32:51] [INFO] Failure voice step 1/3 success=True line=Uhm..... Sir, I seem to be malfunctioning.
[2026-03-15 12:32:52] [INFO] Trying voice line 'Attempting restart.' using voice --text --mode
[2026-03-15 12:32:58] [VOICE_STDERR] Input #0, wav, from 'C:/Users/anden/AppData/Local/Temp/tmps8q8_fgx.wav':
[2026-03-15 12:32:58] [VOICE_STDERR]   Metadata:
[2026-03-15 12:32:58] [VOICE_STDERR]     encoder         : Lavf62.13.100
[2026-03-15 12:32:58] [VOICE_STDERR]   Duration: 00:00:04.76, bitrate: 384 kb/s
[2026-03-15 12:32:58] [VOICE_STDERR]   Stream #0:0: Audio: pcm_s16le ([1][0][0][0] / 0x0001), 24000 Hz, 1 channels, s16, 384 kb/s
[2026-03-15 12:32:58] [INFO] Voice line completed: Attempting restart.
[2026-03-15 12:32:58] [INFO] Failure voice step 2/3 success=True line=Attempting restart.
[2026-03-15 12:32:59] [INFO] Trying voice line 'Restart failed.' using voice --text --mode
[2026-03-15 12:33:04] [VOICE_STDERR] Input #0, wav, from 'C:/Users/anden/AppData/Local/Temp/tmpr4wuol2a.wav':
[2026-03-15 12:33:04] [VOICE_STDERR]   Metadata:
[2026-03-15 12:33:04] [VOICE_STDERR]     encoder         : Lavf62.13.100
[2026-03-15 12:33:04] [VOICE_STDERR]   Duration: 00:00:04.54, bitrate: 384 kb/s
[2026-03-15 12:33:04] [VOICE_STDERR]   Stream #0:0: Audio: pcm_s16le ([1][0][0][0] / 0x0001), 24000 Hz, 1 channels, s16, 384 kb/s
[2026-03-15 12:33:04] [INFO] Voice line completed: Restart failed.
[2026-03-15 12:33:04] [INFO] Failure voice step 3/3 success=True line=Restart failed.
[2026-03-15 12:33:05] [INFO] Diagnostics process launched.
